<svg width="19" height="19" viewBox="0 0 19 19" fill="none" xmlns="http://www.w3.org/2000/svg">
<path d="M5.66515 9.26542C5.66515 9.47416 5.74268 9.65308 5.90967 9.80814L10.5497 14.3527C10.6809 14.4839 10.8479 14.5555 11.0447 14.5555C11.4383 14.5555 11.7544 14.2454 11.7544 13.8458C11.7544 13.649 11.6709 13.476 11.5397 13.3388L7.35892 9.26542L11.5397 5.192C11.6709 5.05483 11.7544 4.87591 11.7544 4.68506C11.7544 4.28547 11.4383 3.97534 11.0447 3.97534C10.8479 3.97534 10.6809 4.04691 10.5497 4.17812L5.90967 8.71673C5.74268 8.87776 5.66515 9.05668 5.66515 9.26542Z" fill="white"/>
</svg>
