<svg width="19" height="19" viewBox="0 0 19 19" fill="none" xmlns="http://www.w3.org/2000/svg">
<path d="M13.3349 9.26542C13.3289 9.05668 13.2514 8.87776 13.0903 8.71673L8.45033 4.17812C8.31316 4.04691 8.15213 3.97534 7.95532 3.97534C7.55573 3.97534 7.24561 4.28547 7.24561 4.68506C7.24561 4.87591 7.32314 5.05483 7.46031 5.192L11.6351 9.26542L7.46031 13.3388C7.32314 13.476 7.24561 13.649 7.24561 13.8458C7.24561 14.2454 7.55573 14.5555 7.95532 14.5555C8.14617 14.5555 8.31316 14.4839 8.45033 14.3527L13.0903 9.80814C13.2573 9.65308 13.3349 9.47416 13.3349 9.26542Z" fill="white"/>
</svg>
